<svg width="15" height="15" viewBox="0 0 15 15" fill="none" xmlns="http://www.w3.org/2000/svg">
<path d="M5.19269 5.07921C5.19272 4.80309 5.41651 4.57926 5.69264 4.57926L10.1922 4.57926C10.4683 4.57929 10.6921 4.8031 10.6921 5.07921V9.57873C10.6921 9.85486 10.4683 10.0787 10.1922 10.0787C9.91602 10.0787 9.69221 9.85487 9.69221 9.57873V6.28626L5.34945 10.629C5.15418 10.8243 4.8376 10.8243 4.64234 10.629C4.44708 10.4338 4.44708 10.1172 4.64234 9.92193L8.98511 5.57916L5.69264 5.57916C5.4165 5.57916 5.19269 5.35535 5.19269 5.07921Z" fill="black"/>
<path d="M13.4355 7.67737C13.4355 4.45049 10.8196 1.83459 7.59277 1.83459C4.3659 1.83459 1.75 4.45049 1.75 7.67737C1.75 10.9042 4.3659 13.5201 7.59277 13.5201V14.5201C3.81361 14.5201 0.75 11.4565 0.75 7.67737C0.75 3.89821 3.81361 0.834595 7.59277 0.834595C11.3719 0.834595 14.4355 3.89821 14.4355 7.67737C14.4355 11.4565 11.3719 14.5201 7.59277 14.5201V13.5201C10.8196 13.5201 13.4355 10.9042 13.4355 7.67737Z" fill="black"/>
</svg>
